<?xml version="1.0" encoding="utf-8"?>
<!-- Generator: Adobe Illustrator 22.1.0, SVG Export Plug-In . SVG Version: 6.00 Build 0)  -->
<svg version="1.1" id="Layer_1" xmlns="http://www.w3.org/2000/svg" xmlns:xlink="http://www.w3.org/1999/xlink" x="0px" y="0px"
	 viewBox="0 0 3000 2222" style="enable-background:new 0 0 3000 2222;" xml:space="preserve">
<style type="text/css">
	.st0{fill:#2C3C9B;}
	.st1{fill:#DFE4ED;}
	.st2{fill:#F73C74;}
</style>
<g>
	<g>
		<rect x="0.5" y="0.5" class="st0" width="2999" height="2221"/>
	</g>
	<g>
		<path class="st1" d="M1858.1,0.5c0,0-155.3,319.7,157.7,726.1c227.9,295.8,805,459.7,983.2,671V1656c-2,2.6-4.1,5.2-6.3,7.8
			c-308.2,373.4,0,557.7,0,557.7H0.5l0-2221L1858.1,0.5z"/>
	</g>
	<path class="st2" d="M239.7,1344c-38,25.9-77.1,51.4-107.8,92.4c-30.8,41-52.3,101.3-44.9,160.5c10.5,83.8,70.5,131.6,112.2,192.4
		c73.7,107.5,92.5,283.9,44.5,417.8c-1.8,4.9-3.6,9.7-5.5,14.5H0.5l0-1738C143.6,565.1,296.2,617.7,426,735.7
		c51.4,46.8,102.5,113.8,105.7,200.7c2.3,61.8-20.7,120-48.5,167.5C419.5,1212.9,329.4,1282.8,239.7,1344z"/>
</g>
</svg>
