<svg xmlns="http://www.w3.org/2000/svg" xmlns:xlink="http://www.w3.org/1999/xlink" viewBox="0 0 1174.6 1457.37"><defs><style>.cls-1{fill:#d6e2ea;}.cls-1,.cls-10,.cls-11,.cls-12,.cls-2,.cls-3,.cls-4,.cls-6,.cls-7,.cls-8,.cls-9{fill-rule:evenodd;}.cls-1,.cls-3{opacity:0.82;}.cls-2{fill:#cccae8;}.cls-3{fill:#b7d3ea;}.cls-4{fill:url(#Áåçûìÿííûé_ãðàäèåíò_345);}.cls-5{opacity:0.75;}.cls-6{fill:#f9a5c5;}.cls-14,.cls-7{fill:#fff;}.cls-8{fill:#ea608e;}.cls-9{fill:#e7ebf2;}.cls-10{fill:#d1d7e0;}.cls-11{fill:#2c3c9b;}.cls-12,.cls-13,.cls-22{fill:#f73c74;}.cls-13,.cls-17{stroke:#fff;stroke-miterlimit:10;stroke-width:2.01px;}.cls-15{fill:#4968ce;}.cls-16{fill:#172968;}.cls-17{fill:#98a8d3;}.cls-18{fill:#e1e8ef;}.cls-19{fill:#ffd1a4;}.cls-20{fill:#f46494;}.cls-21{fill:#e9e5d9;}.cls-23{fill:#f2ba88;}.cls-24{fill:#d68162;}.cls-25{fill:#ffc8af;}</style><linearGradient id="Áåçûìÿííûé_ãðàäèåíò_345" x1="17.89" y1="1072.55" x2="220.03" y2="1072.55" gradientUnits="userSpaceOnUse"><stop offset="0" stop-color="#8d78ed"/><stop offset="1" stop-color="#be9be8"/></linearGradient></defs><title>club1Asset 2sofian 2</title><g id="Layer_2" data-name="Layer 2"><g id="Layer_1-2" data-name="Layer 1"><path class="cls-1" d="M.52,824.29c8.22-60.07,66.4-34.9,95.83,12,29,46.12,104.47,228.44,156.64,276.62L234.52,1118C142.94,1066.39-10,901.53.52,824.29Z"/><path class="cls-2" d="M241.62,1116c-125.9-96.81-211.68-300.45-212-301.13A2.44,2.44,0,1,1,34.14,813c.29.69,87,206.56,213.32,301.42Z"/><path class="cls-3" d="M25.57,999.14c-46.13,10.74-22.34,54.15,16.23,73.64,18.22,9.21,61.59,24.47,106.34,42h0l5.3,2.09a121.45,121.45,0,0,0,74.61,3l7-2C173.76,1055.81,73.52,988,25.57,999.14Z"/><path class="cls-4" d="M220,1121.78c-86.68-63.64-199.19-99.16-199.65-99.31a1.91,1.91,0,0,0-1.17,3.63c.46.14,110.11,34.76,195.74,96.62C216.64,1122.44,218.34,1122.13,220,1121.78Z"/><g class="cls-5"><path class="cls-6" d="M1158.37,287.35c-11.84-50.78-59.64-24.58-81.08,17.89-21.11,41.8-71.18,203.91-112,249.32l16.23,2.94C1055.79,506,1173.58,352.63,1158.37,287.35Z"/><path class="cls-7" d="M975.28,556.37c100-92.94,157.2-274.12,157.4-274.73a2.1,2.1,0,1,0-4-1.28c-.19.61-58,183.78-158.53,275.08Z"/><path class="cls-8" d="M1150.89,439c40.35,5.5,23.46,44.57-8,64.34-14.86,9.33-50.77,25.86-87.68,44.41h0l0,0-4.38,2.21a104.39,104.39,0,0,1-63.62,8.51L981,557.4C1028.56,499.39,1109,433.31,1150.89,439Z"/><path class="cls-7" d="M994.22,559.55c69.12-61.4,162.6-100.8,163-101a1.64,1.64,0,0,1,1.29,3c-.38.16-91.48,38.56-159.85,98.35C997.17,559.85,995.7,559.72,994.22,559.55Z"/></g><path class="cls-9" d="M925.37,6.27,209.45,419.61c-25.31,14.61-46,50.31-46,79.34l5.89,910c0,29,20.7,40.83,46,26.22l715.93-413.34c25.3-14.61,46-50.31,46-79.34L971.37,32.5C971.37,3.46,950.68-8.34,925.37,6.27Z"/><path class="cls-10" d="M965.65,22.2,249.7,435.55c-25.3,14.61-46,50.31-46,79.35l5.89,910c0,29,20.7,40.83,46,26.22l715.95-413.35c25.3-14.61,46-50.31,46-79.34l-5.89-910C1011.65,19.39,991,7.59,965.65,22.2Z"/><path class="cls-11" d="M987.06,50.46,288.3,453.89c-24.7,14.26-44.9,49.1-44.9,77.44l6.21,889.49c0,28.33,20.2,39.85,44.9,25.59L993.27,1043c24.71-14.26,44.9-49.1,44.9-77.44L1032,76.05C1032,47.72,1011.76,36.2,987.06,50.46Z"/><path class="cls-12" d="M987.07,50.46,288.3,453.89c-24.7,14.26-44.9,49.1-44.9,77.44V660.78l789.24-454.15L1032,76.05C1032,47.72,1011.76,36.2,987.07,50.46Z"/><path class="cls-7" d="M930.56,195.54c7.54-4.36,13.69-15,13.69-23.62s-6.15-12.15-13.69-7.8-13.69,15-13.69,23.61S923,199.89,930.56,195.54Z"/><path class="cls-7" d="M875.8,227.15c7.54-4.35,13.69-15,13.69-23.61s-6.15-12.16-13.69-7.8-13.69,15-13.69,23.61S868.26,231.51,875.8,227.15Z"/><path class="cls-7" d="M821,258.77c7.54-4.35,13.69-15,13.69-23.61S828.58,223,821,227.35s-13.69,15-13.69,23.62S813.5,263.12,821,258.77Z"/><path class="cls-13" d="M920.73,936.83l-131.47,75.91c-7,4-12.77-.29-12.77-9.66V970.91c0-9.36,5.74-20.35,12.77-24.4L920.73,870.6c7-4.06,12.78.29,12.78,9.66v32.16C933.51,921.79,927.76,932.77,920.73,936.83Z"/><path class="cls-14" d="M818.71,968.77l6.42-3.71v4.23l-11.23,6.49V952.94l4.81-2.78Z"/><path class="cls-14" d="M841.87,937.94a4.63,4.63,0,0,1,3.61,2.08,9,9,0,0,1,1.33,5.26,18.79,18.79,0,0,1-1.34,6.81,23.09,23.09,0,0,1-3.63,6.28,18.46,18.46,0,0,1-5.08,4.44,8.93,8.93,0,0,1-5.09,1.43,4.66,4.66,0,0,1-3.63-2.09,9.07,9.07,0,0,1-1.33-5.27,18.63,18.63,0,0,1,1.33-6.79,23.34,23.34,0,0,1,3.63-6.27,18.62,18.62,0,0,1,5.09-4.43A8.91,8.91,0,0,1,841.87,937.94ZM833,948.45a11.58,11.58,0,0,0-1.4,5.61c0,2,.47,3.33,1.4,4s2.18.52,3.76-.39a9.89,9.89,0,0,0,3.74-3.94,11.49,11.49,0,0,0,1.41-5.59c0-2-.47-3.33-1.39-4s-2.19-.52-3.76.39A9.83,9.83,0,0,0,833,948.45Z"/><path class="cls-14" d="M864.94,925.35c1.61.46,2.62,1.78,3,3.94l-5.1,2.94a1.94,1.94,0,0,0-1.54-1.06,4.26,4.26,0,0,0-2.51.72,9.61,9.61,0,0,0-3.66,3.88,11.51,11.51,0,0,0-1.38,5.56c0,2.17.48,3.56,1.45,4.17s2.34.39,4.13-.64a9.66,9.66,0,0,0,3-2.82,11.75,11.75,0,0,0,1.83-4.14l-6.08,3.51v-4l10.1-5.84v5.46a21.34,21.34,0,0,1-1.8,4.76,21.86,21.86,0,0,1-3.17,4.6,17.28,17.28,0,0,1-4.4,3.61,9.38,9.38,0,0,1-5.27,1.57,4.26,4.26,0,0,1-3.47-2.11,9.89,9.89,0,0,1-1.23-5.33,19.51,19.51,0,0,1,1.23-6.75,21,21,0,0,1,3.46-6.12,18.57,18.57,0,0,1,5.22-4.48C861.27,925.36,863.32,924.88,864.94,925.35Z"/><path class="cls-14" d="M875.66,917.28v22.84l-4.81,2.78V920.06Z"/><path class="cls-14" d="M896.61,928l-4.81,2.78-8.06-9.38v14l-4.81,2.78V915.39l4.81-2.78,8.06,9.51V908l4.81-2.78Z"/><polygon class="cls-15" points="641.29 1174.38 314.28 1363.17 314.28 684.74 641.29 495.95 641.29 1174.38"/><path class="cls-14" d="M565.75,815.44V786.28c0-53-37.55-74.39-83.72-47.74S398.31,830,398.31,882.94v29.17C384.19,921.38,373,941.2,373,957.69V1083c0,17.22,12.17,24.16,27.18,15.49L563.89,1004c15-8.66,27.17-29.65,27.17-46.87V831.79C591.06,815.3,579.87,808.4,565.75,815.44Zm-72,144.89v35c0,7.4-5.23,16.42-11.68,20.15s-11.68.74-11.68-6.66v-35c-7-.63-11.68-6.45-11.68-16.34,0-14.81,10.46-32.85,23.36-40.3s23.37-1.49,23.37,13.32C505.4,940.39,500.67,951.67,493.71,960.33ZM536.63,832l-109.2,63.05v-29c0-34.55,24.49-76.79,54.6-94.17s54.6-3.42,54.6,31.13Z"/><path class="cls-16" d="M761,559.58c0-1.29.1-2.58.19-3.89s.18-2.6.31-3.91.27-2.62.43-3.93.37-2.69.58-4,.45-2.71.7-4.06.55-2.79.85-4.19.64-2.81,1-4.21.73-2.85,1.12-4.27.81-2.83,1.24-4.24.87-2.77,1.34-4.16.93-2.73,1.42-4.09,1-2.62,1.48-3.93,1-2.6,1.57-3.89,1.08-2.57,1.64-3.85,1.17-2.59,1.77-3.88,1.35-2.84,2.06-4.25q1.2-2.42,2.49-4.82c1.27-2.37,2.58-4.72,3.95-7q2.85-4.86,6-9.53,2.48-3.69,5.09-7.25,1.75-2.37,3.57-4.68,1.51-1.94,3.09-3.82c1-1.22,2.05-2.44,3.1-3.63s2.07-2.33,3.13-3.47,2.18-2.32,3.29-3.45,2.25-2.26,3.4-3.35,2.34-2.22,3.53-3.29,2.38-2.11,3.58-3.13,2.38-2,3.58-2.92,2.35-1.82,3.54-2.7,2.32-1.68,3.5-2.48,2.27-1.54,3.42-2.27,2.27-1.41,3.41-2.08l.79-.46c.86-.5,1.71-1,2.56-1.44q1.66-.89,3.3-1.71c1.09-.54,2.18-1,3.26-1.53s2.16-.94,3.22-1.37,2.18-.84,3.25-1.22,2.16-.73,3.23-1.06,2.22-.64,3.32-.91,2.21-.52,3.3-.74,2.36-.42,3.52-.58,2.41-.28,3.58-.36,2.54-.13,3.78-.13c1.42,0,2.81.07,4.17.2a43.54,43.54,0,0,1,4.64.67,41.42,41.42,0,0,1,5.61,1.55,37.74,37.74,0,0,1,6.51,3l27.15,15.78a37.74,37.74,0,0,0-6.51-3,40,40,0,0,0-5.61-1.55,43.54,43.54,0,0,0-4.64-.67c-1.36-.13-2.75-.19-4.17-.2-1.24,0-2.5,0-3.77.13s-2.38.2-3.59.36-2.33.35-3.52.58-2.19.46-3.3.74-2.21.57-3.32.91-2.14.68-3.23,1.06-2.16.78-3.25,1.22-2.14.88-3.22,1.37-2.17,1-3.26,1.53-2.19,1.11-3.3,1.71c-.85.46-1.7.94-2.56,1.43l-.79.47c-1.14.67-2.28,1.36-3.41,2.08s-2.29,1.49-3.42,2.26-2.34,1.64-3.5,2.49-2.37,1.78-3.54,2.7-2.39,1.92-3.58,2.92-2.39,2.06-3.57,3.12-2.38,2.17-3.54,3.29-2.28,2.22-3.4,3.36-2.2,2.28-3.29,3.45-2.1,2.3-3.13,3.47-2.08,2.4-3.1,3.63S828,476,827,477.25c-1.21,1.53-2.4,3.1-3.57,4.68q-2.62,3.56-5.09,7.24-3.12,4.68-6,9.54c-1.37,2.32-2.68,4.67-3.95,7-.86,1.6-1.69,3.2-2.49,4.82q-1.05,2.12-2.06,4.24c-.6,1.3-1.19,2.59-1.77,3.89s-1.11,2.56-1.64,3.84-1.07,2.6-1.57,3.9-1,2.62-1.48,3.93-1,2.72-1.42,4.09-.91,2.77-1.34,4.16-.84,2.83-1.24,4.24-.76,2.84-1.12,4.27-.67,2.8-1,4.2-.59,2.8-.85,4.2-.49,2.71-.7,4.06-.4,2.69-.57,4-.32,2.63-.44,3.94-.23,2.61-.31,3.91-.15,2.6-.19,3.89-.05,2.43,0,3.63v.23c0,1.32,0,2.61.09,3.89s.13,2.55.23,3.79.24,2.61.4,3.88.36,2.58.58,3.84.49,2.65.79,3.93.68,2.78,1.07,4.11.89,2.87,1.4,4.23c.59,1.59,1.24,3.11,1.93,4.58a50.84,50.84,0,0,0,3,5.5,40.84,40.84,0,0,0,13.93,13.61L784.45,614.8a40.93,40.93,0,0,1-13.93-13.61,49.86,49.86,0,0,1-3-5.5c-.7-1.46-1.34-3-1.93-4.57-.51-1.37-1-2.78-1.4-4.24s-.75-2.7-1.07-4.1-.56-2.6-.79-3.94-.41-2.54-.58-3.84-.29-2.56-.4-3.87-.18-2.51-.23-3.8-.09-2.57-.09-3.89a1.77,1.77,0,0,1,0-.23C761,562,761,560.8,761,559.58Z"/><path class="cls-13" d="M868.31,440.19C823.89,465.84,788,528,788.15,579s36.26,71.63,80.68,46S949.14,537.16,949,486.12,912.73,414.55,868.31,440.19Z"/><path class="cls-14" d="M892,484c0,13.68-9.66,30.35-21.58,37.23s-21.59,1.37-21.59-12.3,9.66-30.36,21.59-37.25S892,470.33,892,484Z"/><path class="cls-14" d="M919.32,551.09c-11.5-33.61-21.09-39.15-48.94-23.07s-37.47,32.71-49,79.59Z"/><path class="cls-17" d="M977.65,675.81,732.35,817.44c-6.43,3.71-11.63-.23-11.63-8.79v-27c0-8.56,5.2-18.5,11.63-22.21l245.3-141.63c6.42-3.7,11.62.23,11.62,8.79v27C989.27,662.16,984.07,672.11,977.65,675.81Z"/><path class="cls-17" d="M977.65,759.38,732.35,901c-6.43,3.7-11.63-.23-11.63-8.79v-27c0-8.56,5.2-18.51,11.63-22.22l245.3-141.62c6.42-3.71,11.62.23,11.62,8.79v27C989.27,745.73,984.07,755.67,977.65,759.38Z"/><ellipse class="cls-18" cx="677.33" cy="1384.94" rx="126.69" ry="55.37"/><path class="cls-19" d="M743.79,1091.66l-3.11-1.11s-19.41-19.94-26.71-26.43,5.31-29.79,12.47-19.28c10.64,15.62,20.42,36.36,23,37.93"/><path class="cls-19" d="M740.85,1084.52c4.6-7.73,17,1.71,21.16,5.08,6.72,5.5,10.41,17,8.27,19.71s-16.68-10.72-17.68-10.51,5.44,7.42,3.18,9.75-12-6.11-14.59-11S738,1089.36,740.85,1084.52Z"/><path class="cls-20" d="M710.79,1001.83s9.47,28.47,12.94,34.74,7.62,13,7.62,13-2.36,9.14-9.35,12.52-8.73,3.35-8.73,3.35-10.66-9.58-12.29-13.54,2.64-32.23,2.64-32.23Z"/><path class="cls-19" d="M727.57,1380.6c.92,7.63-22,5.74-28.23,1.89s-11-11.48-15.33-14.81-8.09-3.38-8.61-6.71c-.11-1-.4-3.73-.63-7.52-.69-9.24-1.43-24.68-.8-35.52,1-15.33-1.26-50.68,1.43-68.87.41-2.59.69-5.28,1-8.1,1.32-13.94,1.38-30.07,1.78-39.6.52-11.47-2.24-57-2.24-57s-2.87-52.63-2.87-65c0-4.19,3.39-6.48,7.92-7.63,8.9-2.41,22.21-.52,22.21-.52,15.78,74.61,9.41,116.68,9.07,140.15-.29,21.07-6.2,34.44-8.61,57.85s-7.17,56.42-6.2,68.41c.63,8,13.66,21.35,22.38,31.45C724,1373.94,727.23,1378.07,727.57,1380.6Z"/><path d="M707.23,1070.07s6.78,40.76,8.75,68.5,2.52,78.6-3.19,93.74-12.47,97.08-12.47,97.08-14.3,12-27.27,0V1181.13l-12-102.34,13.73-18.49Z"/><path class="cls-19" d="M694.57,1129.51c-4.82,14.81-19.17,16.24-17.21,40.18s3.32,52.11-.52,69.32c-.17.63-.29,1.32-.46,2v.06c-3.73,16.53-8.26,32.71-11,64-2.87,32.54-2.87,65.54-1.89,73.64.46,3.78,2.46,11.7,4.07,19.62,2,9.13,3.44,18.25,1.67,21.07-3.33,5.22-23.42,0-26.29-4.83s-1.95-15.26-1.95-21c0-1-.17-4.82-.52-10.45-1.49-25.59-5.51-89.47-4.7-104.33.92-18.2,6.19-46.89,4.76-67.44s-8.61-36.84-6.2-72.71,15.78-38.74,16.7-57.39c.63-11.65,17.39-11.37,30-9.53H681a131.73,131.73,0,0,1,13.54,2.81S699.34,1114.65,694.57,1129.51Z"/><path d="M696.69,1078.79s2.89,35.15,0,46.86-13.17,22.24-15.09,27.74-.71,58.11-.71,66-3.59,28-5.74,33.24-7.89,35.39-7.89,47.11-3.83,49.5-3.11,58.11c0,0-4.31,5-13.63,5s-13.63-4.54-13.63-4.54-3.59-67.92-2.16-86.09,4.55-47.35,4.07-57.63-6.93-32.28-8.37-54.76,4.3-45,4.3-45l12.44-36.1s7.17-13.87,8.13-13.87,33.48.71,33.48.71Z"/><path class="cls-19" d="M616.3,1012.5c3.23-21,11.48-26.9,30.13-41.25s39.63-21.7,50.4-5,16,38.91,16,42.86-6.46,13.09-6.28,18.29.72,42.69.72,42.69-5.56,14.35-30.85,16-27.62-2.15-27.62-2.15-3.23-19.73-5.56-31.39S614.11,1026.73,616.3,1012.5Z"/><path class="cls-21" d="M648.76,1083.88s2.33,3.76,27.62,2.15,30.85-16,30.85-16-.54-37.49-.72-42.69,6.28-14.34,6.28-18.29-5.2-26.18-16-42.86c-3.88-6-9.09-8.86-15-9.43.88,1.05,10.82,13.05,10.59,20.37-.24,7.65-22.48,22.71-31.32,22.71S647.32,985,635,980.23c-10.78,8.95-16.22,16.2-18.69,32.27-2.19,14.23,24.57,28.33,26.9,40S648.76,1083.88,648.76,1083.88Z"/><path class="cls-22" d="M682,980.79c-14.34,5.86-20.81-1.8-26.19-5.74a74.73,74.73,0,0,0-9.68-6.1s-21.83,14.83-27.26,26.54c-3.66,7.87-1.44,28.34,7.17,39.46s15.41,8.54,17.21,17.54,4.31,24.07,1.8,30.88-10.4,23.68-12.91,39.82c0,0,15.06-12.91,24.39-9.69s19,20.81,33.36,21.17,24.75-17.94,25.47-21.88-6.82-47-6.82-67.44,6.82-32.64,5.74-40.53-10.52-30.37-14.35-36.35S682,962.25,682,962.25,689.84,977.56,682,980.79Z"/><path class="cls-23" d="M682.12,955.11s-.18,15.24-.72,19.73-12.91,4.48-18.29,4.48-9.15-3.41-9.33-8.61.12-29.17.12-29.17,7.06,1.19,17.46,6.21S682.12,955.11,682.12,955.11Z"/><path class="cls-19" d="M694.55,904.23c1.68,5.26,0,12.68.48,15.07s1.91,4.78,1.91,8.61.24,24.15-3.82,26.78-26.54-1-31.09-4.54a48.75,48.75,0,0,1-8.13-8.61,9.78,9.78,0,0,1-8.13-3.59c-3.11-4.07-11-20.33-5.74-38s33.72-18.42,43.76-11.24S694.55,904.23,694.55,904.23Z"/><path class="cls-22" d="M727.57,1380.6c.92,7.63-22,5.74-28.23,1.89s-11-11.48-15.33-14.81-8.09-3.38-8.61-6.71c-.11-1-.4-3.73-.63-7.52,8.44,6.26,29,20.78,36.79,19.74,4.82-.69,7.29-2.23,8.26-4.19C724,1373.94,727.23,1378.07,727.57,1380.6Z"/><path class="cls-22" d="M669.21,1419.34c-3.33,5.22-23.42,0-26.29-4.83s-1.95-15.26-1.95-21c0-1-.17-4.82-.52-10.45.58,2.3,1.09,4.77,1.49,7.29,1.67,10.79,2.64,15.1,16.25,16.76,6,.75,8.43-3.67,9.35-8.84C669.49,1407.4,671,1416.52,669.21,1419.34Z"/><path class="cls-24" d="M681.66,965.93s6.7,1.91,7.41,8.37a14.84,14.84,0,0,0-.24-8.85c-1.67-4.31-7-8.65-7-8.65Z"/><path d="M691.34,897.18s-7.17,22.6-34.43,34.43c0,0-3.41-11.83-8.79-8.07s-5.2,8.79-3.23,11.84,4.39,7.11,9,6.16c-1.44.29,1.85,19.37,2.24,20.82,2,7.55,6.12,13.39,9,20.35,4.14,10.12-24.57-7.78-32.1-3.74-.84-23.85-4.46-50.54,2.49-73.78,6.21-20.81,21-23.68,32.28-20.57S691.34,897.18,691.34,897.18Z"/><path d="M657.63,884.09c8.61-4.85,18.29-3.05,25.29.17s12.19,9.51,13.09,13.81-.63,14.17-.63,14.17-1.17-9.14-2.06-12-2-3.05-2-3.05-10-7.19-16.23-9.87C663.73,882.38,657.63,884.09,657.63,884.09Z"/><path d="M696,898.07c2.62,19.23,5,36.8,2.8,54.74s-3.23,35.51-3.23,35.51l-14-19.91.53-13.3s8.9.86,11-.42,3.89-15.51,3.77-19.58.48-9-.72-11.59a15.77,15.77,0,0,1-1.31-5.15l.36-8.49Z"/><path class="cls-25" d="M631.12,994.53c-23.87-5.71-19.43,65.4-12.84,82.6s11.53-2.79,15.78-32.77S640.51,996.77,631.12,994.53Z"/><path class="cls-19" d="M620.71,1084.35c-15.05-16,50.26-42.17,68.36-44.25s2.32,10-22.66,25.78S626.63,1090.65,620.71,1084.35Z"/><path class="cls-20" d="M613.64,1006.1c2.28-11,7.17-17.22,18.41-15.3s13.39,20.8,10.28,35.39-7,30.77-7.29,32.9c-.09.63,5.78-2.49,5.78-2.49,4.63,6.06,9.2,15.34,7.14,21.46a31.25,31.25,0,0,1-5.45,4.53s-31.32,17.62-32.7-10C609.52,1066.85,609.33,1026.91,613.64,1006.1Z"/><path class="cls-14" d="M694.59,1049.49l12.65-32.1a3.79,3.79,0,0,1,2.68-2.33l13.78-1.7c1.15-.15,1.7.83,1.2,2.12L712.12,1049a3.66,3.66,0,0,1-2.86,2.37l-13.66.31C694.56,1051.69,694.11,1050.72,694.59,1049.49Z"/><path d="M694.1,1051.57a2.44,2.44,0,0,1-.09-2.31l12.65-32.11a4.41,4.41,0,0,1,3.19-2.71l13.77-1.71a1.84,1.84,0,0,1,1.71.63,2.39,2.39,0,0,1,.16,2.35l-12.77,33.51a4.29,4.29,0,0,1-3.45,2.78l-13.65.29h-.06A1.72,1.72,0,0,1,694.1,1051.57ZM723.78,1014,710,1015.69a3.14,3.14,0,0,0-2.17,1.93l-12.65,32.11a1.3,1.3,0,0,0,0,1.13.49.49,0,0,0,.43.18h0l13.65-.3a3,3,0,0,0,2.3-2l12.77-33.51a1.2,1.2,0,0,0,0-1.13.54.54,0,0,0-.42-.16Z"/><path class="cls-19" d="M688.87,1046.75c2.81,5.83,12.32-.17,15.49-2.34,5.15-3.53,8.51-11.56,7.15-13.63s-12.63,6.66-13.34,6.45,4.37-5,2.89-6.8-9,3.65-11.15,7S687.1,1043.1,688.87,1046.75Z"/></g></g></svg>