<svg id="cinemaximum_logo" xmlns="http://www.w3.org/2000/svg" xmlns:xlink="http://www.w3.org/1999/xlink" width="165" height="37.545" viewBox="0 0 165 37.545">
  <defs>
    <clipPath id="clip-path">
      <path id="Clip_2" data-name="Clip 2" d="M0,0H165V37.545H0Z" fill="none"/>
    </clipPath>
  </defs>
  <g id="cinemaximumlogo">
    <path id="Clip_2-2" data-name="Clip 2" d="M0,0H165V37.545H0Z" fill="none"/>
    <g id="cinemaximumlogo-2" data-name="cinemaximumlogo" clip-path="url(#clip-path)">
      <path id="Fill_1" data-name="Fill 1" d="M150.081,37.545h0l-142.166-1-.216,0a7.644,7.644,0,0,1-5.946-2.3A7.838,7.838,0,0,1,.1,27.979L3.7,7.769C4.793,1.636,10.341,0,13.447,0l.2,0L153.7.266a11.43,11.43,0,0,1,8.588,3.61,11.294,11.294,0,0,1,2.628,8.775l-1.894,13.96C161.869,35.108,154.053,37.479,150.081,37.545ZM13.447,2.259c-2.361,0-6.577,1.24-7.4,5.887l-3.6,20.213a5.752,5.752,0,0,0,1.113,4.419A5.339,5.339,0,0,0,7.7,34.29l.173,0L149.807,31.9c2.251-.036,6.68-1.368,7.332-6.15l1.894-13.963a6.191,6.191,0,0,0-1.29-4.5,5.783,5.783,0,0,0-4.359-1.7L13.586,2.261l-.14,0ZM94.891,31.391h0L89.107,21.308c-.048-.08-.114-.191-.218-.191-.081,0-.172.065-.278.2-.272.351-4.525,5.6-4.706,5.826l-1.213-2.957,4.324-5.946a.749.749,0,0,0-.008-.666c-.052-.1-.555-.96-1.138-1.961l-.013-.023-.005-.009C85.1,14.3,84.257,12.843,84.184,12.7A2.467,2.467,0,0,1,84.126,11c.268-1.139,1.023-1.291,1.108-1.3a.715.715,0,0,1,.107-.008c.268,0,.5.171.744.554.2.3,1.272,1.915,2.058,3.1l.005.008c.486.73.906,1.36.95,1.427a.282.282,0,0,0,.224.149.267.267,0,0,0,.21-.134c.2-.284,5.437-7.5,5.657-7.8a2.912,2.912,0,0,1,1.526-1.144,3.085,3.085,0,0,1,.453-.036,1.707,1.707,0,0,1,1.074.344,1.947,1.947,0,0,1,.734,1.7A4.208,4.208,0,0,1,97.9,9.932c-.655.826-6.164,7.528-6.3,7.674a.784.784,0,0,0-.118.633,2.684,2.684,0,0,0,.425.739l.005.007L92,19.1l3.456,5.136,1.774-12.248h3.447L98.635,25.949H96.621L98.405,28.6l-3.514,2.79Zm30.046-5.023c-2.914,0-3.967-1.77-4.13-2.816a11.424,11.424,0,0,1,.19-3.668c.235-1.481,1.176-7.817,1.185-7.88H125.8c0,.038-.239,1.636-.511,3.485-.389,2.649-.872,5.945-.932,6.341-.087.571-.073,1.738.6,2.065a2.264,2.264,0,0,0,.968.2,1.744,1.744,0,0,0,1.111-.32,2.811,2.811,0,0,0,1.042-1.944c.218-1.178,1.472-9.756,1.484-9.842h3.568c-.005.039-1.211,8.406-1.35,9.449a5.9,5.9,0,0,1-1.722,3.618C128.985,25.906,127.852,26.368,124.936,26.368ZM75.51,26.347c-1.046,0-3.584-.237-4.557-2.435a4.7,4.7,0,0,1-.212-3.306,4.575,4.575,0,0,1,2.4-2.716,15.994,15.994,0,0,1,6.314-1.229h.1c0-.01.287-1.164-.342-1.723a1.592,1.592,0,0,0-1.154-.418,9.417,9.417,0,0,0-1.437.177l-.012,0-.414.069a17.2,17.2,0,0,0-3.363,1.013l.409-2.891a9.637,9.637,0,0,1,3.77-1.178,11.183,11.183,0,0,1,1.66-.142A4.693,4.693,0,0,1,81.855,12.7,3.46,3.46,0,0,1,82.912,16.1c-.132.955-1.165,7.963-1.175,8.033l-.921.716a9.162,9.162,0,0,1-4.609,1.467C75.976,26.336,75.742,26.347,75.51,26.347Zm3.719-7.316c-.085.006-.836.056-1.382.1a9.212,9.212,0,0,0-2.61.563,2.272,2.272,0,0,0-1.589,2.234,1.878,1.878,0,0,0,2.013,1.91c.075.005.153.008.23.008a5.535,5.535,0,0,0,2.741-.894Zm-34.677,7.1a5.567,5.567,0,0,1-4.218-1.546,4.988,4.988,0,0,1-1.138-3.93c.25-3.286,1.382-8.871,6.149-9.36a6.32,6.32,0,0,1,.65-.033,5.277,5.277,0,0,1,2.938.8,3.752,3.752,0,0,1,1.418,2.645,3.542,3.542,0,0,1-.822,2.8c-1.484,1.615-4.886,2.03-7.683,2.211a3.236,3.236,0,0,0,.117,3,3.548,3.548,0,0,0,2.993,1.156,8.9,8.9,0,0,0,3.294-.669c.025.615.08,1.213.133,1.792.013.142.026.281.038.421A11.863,11.863,0,0,1,44.552,26.134ZM45.918,13.52h0a3.605,3.605,0,0,0-2.367.839A5.13,5.13,0,0,0,42.268,17.4c-.027.153-.054.3-.083.451.223-.022.453-.042.687-.062,2.266-.2,4.834-.42,5.036-2.32a1.676,1.676,0,0,0-.363-1.355,2.145,2.145,0,0,0-1.627-.592ZM14.147,26.109a5.3,5.3,0,0,1-4-1.416,5.049,5.049,0,0,1-1.093-3.949,14.365,14.365,0,0,1,1.7-6.207A6.2,6.2,0,0,1,15.7,11.3c.286-.027.555-.04.823-.04a11.963,11.963,0,0,1,2.924.448c.253.06.515.122.8.186-.064.188-.132.376-.2.558a11.992,11.992,0,0,0-.486,1.57l-.194-.042a16.048,16.048,0,0,0-3.244-.495,3.686,3.686,0,0,0-2.455.792,5.378,5.378,0,0,0-1.538,3.147c-.049.224-.1.449-.156.687l0,.007c-.351,1.512-.749,3.226-.182,4.5.374.843,1.259,1.27,2.63,1.27a12.857,12.857,0,0,0,3.434-.587c0,.309.026.6.05.883a8.172,8.172,0,0,1,.035,1.327A13.748,13.748,0,0,1,14.147,26.109Zm129.5-.168h-3.624c.008-.057,1.329-9.037,1.39-9.518.088-.718.073-1.649-.5-2.012a1.746,1.746,0,0,0-.936-.248,1.608,1.608,0,0,0-1.324.579,3.617,3.617,0,0,0-.735,1.955c-.16.971-1.345,9.162-1.357,9.245h-3.64l1.465-9.928a5.552,5.552,0,0,1,1.782-3.08,6.541,6.541,0,0,1,6.9-.7,3.889,3.889,0,0,1,.871.657l0,0a4.488,4.488,0,0,1,1.286-.774,6.2,6.2,0,0,1,2.823-.562,5.028,5.028,0,0,1,3.232,1,3,3,0,0,1,.967,1.851,6.434,6.434,0,0,1-.034,1.705l-1.434,9.833h-3.645c.005-.039,1.263-8.63,1.341-9.2l0-.019a3.3,3.3,0,0,0-.137-1.994,1.667,1.667,0,0,0-1.312-.552c-.05,0-.1,0-.148.005-.36.026-1.456.107-1.733,1.759-.258,1.55-1.5,9.921-1.508,10Zm-32.485,0h-3.627c.008-.055,1.326-9.018,1.391-9.518.09-.717.078-1.648-.5-2.012a1.746,1.746,0,0,0-.935-.248,1.61,1.61,0,0,0-1.324.579,3.624,3.624,0,0,0-.734,1.955c-.162.982-1.346,9.163-1.358,9.245h-3.641l1.467-9.928a5.543,5.543,0,0,1,1.782-3.08,6.541,6.541,0,0,1,6.9-.7,3.889,3.889,0,0,1,.871.657l0,0a4.5,4.5,0,0,1,1.283-.774,6.217,6.217,0,0,1,2.824-.562,5.035,5.035,0,0,1,3.234,1,3.011,3.011,0,0,1,.964,1.851,6.287,6.287,0,0,1-.032,1.705L118.3,25.939h-3.643c0-.038,1.26-8.625,1.338-9.2l0-.012a3.3,3.3,0,0,0-.136-2,1.671,1.671,0,0,0-1.314-.552c-.05,0-.1,0-.149.005-.359.026-1.453.107-1.731,1.759-.258,1.55-1.5,9.921-1.508,10Zm-49.82,0H57.713c.009-.061,1.33-9.03,1.39-9.518.089-.717.076-1.648-.494-2.012a1.751,1.751,0,0,0-.936-.248,1.613,1.613,0,0,0-1.325.579,3.629,3.629,0,0,0-.734,1.955c-.16.979-1.343,9.163-1.354,9.245H50.616l1.466-9.928a5.562,5.562,0,0,1,1.784-3.08,6.541,6.541,0,0,1,6.9-.7,3.842,3.842,0,0,1,.869.657,4.453,4.453,0,0,1,1.29-.778,6.194,6.194,0,0,1,2.822-.562,5.034,5.034,0,0,1,3.233,1,3.006,3.006,0,0,1,.964,1.851,6.318,6.318,0,0,1-.034,1.705l-1.433,9.833H64.835c0-.029,1.261-8.63,1.341-9.2l0-.012a3.284,3.284,0,0,0-.138-2,1.661,1.661,0,0,0-1.31-.552c-.05,0-.1,0-.148.005-.36.027-1.457.107-1.733,1.759-.255,1.522-1.457,9.651-1.508,10v.007ZM23.3,25.851H20.849l2.008-14.068h2.426L23.3,25.85Zm4.988-.011H25.836s0-.043.056-.424c.085-.639.3-2.242.831-6.259a15.3,15.3,0,0,1,1.37-5.476,4.783,4.783,0,0,1,3.958-2.393c.2-.02.4-.03.606-.03A5.525,5.525,0,0,1,36.792,13a4.383,4.383,0,0,1,1.1,3.492c-.043.687-.122,1.234-.215,1.867-.033.226-.067.459-.1.715l-.909,6.77H34.218s0-.021.02-.161c.154-1.172.445-3.365.864-6.519.042-.32.083-.612.124-.9.1-.685.19-1.328.248-2.139a1.876,1.876,0,0,0-.5-1.486,3.3,3.3,0,0,0-2.411-.979,2.868,2.868,0,0,0-2.96,2.55c-.094.587-.139.924-.186,1.281-.051.383-.1.779-.221,1.517l-.916,6.831ZM89.321,11.406a1.235,1.235,0,0,1-.984-.477,2.658,2.658,0,0,1-.356-2.185c.307-1.467,1.411-2.66,2.46-2.66a1.236,1.236,0,0,1,.986.478,2.652,2.652,0,0,1,.354,2.182C91.473,10.212,90.369,11.406,89.321,11.406Zm-64.871-1.4a1.381,1.381,0,1,1,1.386-1.382A1.384,1.384,0,0,1,24.45,10.011Z" fill="#e5007d"/>
    </g>
  </g>
</svg>
